HIERARCHY
ROOT Hip
{
	OFFSET 0 1.131 0.0052
	CHANNELS 6 Xposition Yposition Zposition Xrotation Yrotation Zrotation
	JOINT Abdomen
	{
		OFFSET 0 -0.047353 -0.05
		CHANNELS 3 Xrotation Zrotation Yrotation
		JOINT Chest
		{
			OFFSET 0 0.132153 0.007439
			CHANNELS 3 Xrotation Zrotation Yrotation
			JOINT Neck
			{
				OFFSET 0 0.3078 0.006161
				CHANNELS 3 Xrotation Zrotation Yrotation
				JOINT Head_comp
				{
					OFFSET 0 0.0884 0.013
					CHANNELS 3 Xrotation Yrotation Zrotation
					End Site
					{
						OFFSET -0 0.156 0.0624
					}
				}
			}
			JOINT Left_Collar
			{
				OFFSET 0.02282 0.250342 0.017193
				CHANNELS 2 Yrotation Zrotation
				JOINT Left_Shoulder
				{
					OFFSET 0.15421 0 0
					CHANNELS 3 Xrotation Yrotation Zrotation
					JOINT Left_Forearm
					{
						OFFSET 0.265212 0 0
						CHANNELS 2 Yrotation Xrotation
						JOINT Left_Hand
						{
							OFFSET 0.27571 0 0
							CHANNELS 2 Zrotation Yrotation
							JOINT L1ProxPhalanx
							{
								OFFSET 0.014142 0.001733 0.014142
								CHANNELS 3 Yrotation Zrotation Xrotation
								JOINT L1MidPhalanx
								{
									OFFSET 0.04 0 0
									CHANNELS 1 Zrotation
									JOINT L1DistPhalanx
									{
										OFFSET 0.035 0 0
										CHANNELS 1 Zrotation
										End Site
										{
											OFFSET 0.029 -0 -0
										}
									}
								}
							}
							JOINT L2ProxPhalanx
							{
								OFFSET 0.0821037 0.001578 0.0219996
								CHANNELS 2 Yrotation Zrotation
								JOINT L2MidPhalanx
								{
									OFFSET 0.04 0 0
									CHANNELS 1 Zrotation
									JOINT L2DistPhalanx
									{
										OFFSET 0.028 0 0
										CHANNELS 1 Zrotation
										End Site
										{
											OFFSET 0.02 -0 -0
										}
									}
								}
							}
							JOINT L3ProxPhalanx
							{
								OFFSET 0.083 0 0
								CHANNELS 2 Yrotation Zrotation
								JOINT L3MidPhalanx
								{
									OFFSET 0.053 0 0
									CHANNELS 1 Zrotation
									JOINT L3DistPhalanx
									{
										OFFSET 0.03 0 0
										CHANNELS 1 Zrotation
										End Site
										{
											OFFSET 0.023 -0 -0
										}
									}
								}
							}
							JOINT L4ProxPhalanx
							{
								OFFSET 0.077274 -0.000761 -0.0207055
								CHANNELS 2 Yrotation Zrotation
								JOINT L4MidPhalanx
								{
									OFFSET 0.05 0 0
									CHANNELS 1 Zrotation
									JOINT L4DistPhalanx
									{
										OFFSET 0.03 0 0
										CHANNELS 1 Zrotation
										End Site
										{
											OFFSET 0.023 -0 -0
										}
									}
								}
							}
							JOINT L5ProxPhalanx
							{
								OFFSET 0.0675499 -0.001644 -0.039
								CHANNELS 2 Yrotation Zrotation
								JOINT L5MidPhalanx
								{
									OFFSET 0.04 0 0
									CHANNELS 1 Zrotation
									JOINT L5DistPhalanx
									{
										OFFSET 0.021 0 0
										CHANNELS 1 Zrotation
										End Site
										{
											OFFSET 0.022 -0 -0
										}
									}
								}
							}
						}
					}
				}
			}
			JOINT Right_Collar
			{
				OFFSET -0.02282 0.250342 0.017193
				CHANNELS 2 Yrotation Zrotation
				JOINT Right_Shoulder
				{
					OFFSET -0.15421 0 0
					CHANNELS 3 Xrotation Yrotation Zrotation
					JOINT Right_Forearm
					{
						OFFSET -0.265212 0 0
						CHANNELS 2 Yrotation Xrotation
						JOINT Right_Hand
						{
							OFFSET -0.27571 3e-006 0
							CHANNELS 2 Zrotation Yrotation
							JOINT R1ProxPhalanx
							{
								OFFSET -0.014142 0.001733 0.014142
								CHANNELS 3 Yrotation Zrotation Xrotation
								JOINT R1MidPhalanx
								{
									OFFSET -0.04 0 0
									CHANNELS 1 Zrotation
									JOINT R1DistPhalanx
									{
										OFFSET -0.035 0 0
										CHANNELS 1 Zrotation
										End Site
										{
											OFFSET -0.029 -0 -0
										}
									}
								}
							}
							JOINT R2ProxPhalanx
							{
								OFFSET -0.0821037 0.001578 0.0219996
								CHANNELS 2 Yrotation Zrotation
								JOINT R2MidPhalanx
								{
									OFFSET -0.04 0 0
									CHANNELS 1 Zrotation
									JOINT R2DistPhalanx
									{
										OFFSET -0.028 0 0
										CHANNELS 1 Zrotation
										End Site
										{
											OFFSET -0.02 -0 -0
										}
									}
								}
							}
							JOINT R3ProxPhalanx
							{
								OFFSET -0.083 0 0
								CHANNELS 2 Yrotation Zrotation
								JOINT R3MidPhalanx
								{
									OFFSET -0.053 0 0
									CHANNELS 1 Zrotation
									JOINT R3DistPhalanx
									{
										OFFSET -0.03 0 0
										CHANNELS 1 Zrotation
										End Site
										{
											OFFSET -0.023 -0 -0
										}
									}
								}
							}
							JOINT R4ProxPhalanx
							{
								OFFSET -0.077274 -0.000761 -0.0207055
								CHANNELS 2 Yrotation Zrotation
								JOINT R4MidPhalanx
								{
									OFFSET -0.05 0 0
									CHANNELS 1 Zrotation
									JOINT R4DistPhalanx
									{
										OFFSET -0.03 0 0
										CHANNELS 1 Zrotation
										End Site
										{
											OFFSET -0.023 -0 -0
										}
									}
								}
							}
							JOINT R5ProxPhalanx
							{
								OFFSET -0.0675499 -0.001644 -0.039
								CHANNELS 2 Yrotation Zrotation
								JOINT R5MidPhalanx
								{
									OFFSET -0.04 0 0
									CHANNELS 1 Zrotation
									JOINT R5DistPhalanx
									{
										OFFSET -0.021 0 0
										CHANNELS 1 Zrotation
										End Site
										{
											OFFSET -0.022 -0 -0
										}
									}
								}
							}
						}
					}
				}
			}
		}
	}
	JOINT Left_Thigh
	{
		OFFSET 0.1118 -0.1612 -0.0442
		CHANNELS 3 Xrotation Zrotation Yrotation
		JOINT Left_Shin
		{
			OFFSET 0 -0.477856 0
			CHANNELS 1 Xrotation
			JOINT Left_Foot
			{
				OFFSET 0 -0.431952 0
				CHANNELS 2 Xrotation Zrotation
				JOINT Left_Toe
				{
					OFFSET 0 -0.0442 0.119
					CHANNELS 1 Xrotation
					End Site
					{
						OFFSET -0 -0 0.07
					}
				}
			}
		}
	}
	JOINT Right_Thigh
	{
		OFFSET -0.1118 -0.1612 -0.0442
		CHANNELS 3 Xrotation Zrotation Yrotation
		JOINT Right_Shin
		{
			OFFSET 0 -0.477856 0
			CHANNELS 1 Xrotation
			JOINT Right_Foot
			{
				OFFSET 0 -0.431952 0
				CHANNELS 2 Xrotation Zrotation
				JOINT Right_Toe
				{
					OFFSET 0 -0.0442 0.119
					CHANNELS 1 Xrotation
					End Site
					{
						OFFSET -0 -0 0.07
					}
				}
			}
		}
	}
}
MOTION
Frames: 9
Frame Time: 0.009975
-0.102662 -0.0600864 0.0483958 -1.4523e-012 5.27706e-008 -5.10931e-006 0 0 0 0 0 0 0 0 0 -0.712714 0.294793 0 -4.10083 -24.9977 -28.4129 -21.0443 -43.7602 -31.3545 18.8688 50.815 1.6213 -27.9436 -65.2833 108.317 -5.9465 -7.44175 6.29417 -50.3571 -20.0037 -11.5643 6.55825 -38.876 -58.7545 -26.576 8.48127 -17.8832 -91.8158 -1.8259 27.3153 2.32054 -121.523 2.17466 0 3.88717 30.6237 11.2182 67.4665 82.6896 0 0 0 37.9386 28.008 73.698 26.2405 28.4472 13.118 18.2167 29.0248 19.6359 0 22.4358 32.6146 28.1246 -8.63175 30.7051 32.2053 23.7634 -7.83088 26.7354 35.1526 30.0193 0.580343 -0.575447 -0.0058288 0.0240216 -0.604335 0.575482 0 0.591746 -0.575446 -0.00594333 2.83165e-006 -0.591719 0.575482 0 
-0.102662 -0.0600864 0.0483958 -1.4523e-012 5.27706e-008 -5.10931e-006 0 0 0 0 0 0 0 0 0 -0.712714 0.294793 0 -4.10083 -24.9977 -28.4129 -21.0443 -43.7602 -31.3545 18.8688 50.815 1.6213 -27.9436 -65.2833 108.317 -5.9465 -7.44175 6.29417 -50.3571 -20.0037 -11.5643 6.55825 -38.876 -58.7545 -26.576 8.48127 -17.8832 -91.8158 -1.8259 27.3153 2.32054 -121.523 2.17466 0 3.88717 30.6237 11.2182 67.4665 82.6896 0 0 0 37.9386 28.008 73.698 26.2405 28.4472 13.118 18.2167 29.0248 19.6359 0 22.4358 32.6146 28.1246 -8.63175 30.7051 32.2053 23.7634 -7.83088 26.7354 35.1526 30.0193 0.580343 -0.575447 -0.0058288 0.0240216 -0.604335 0.575482 0 0.591746 -0.575446 -0.00594333 2.83165e-006 -0.591719 0.575482 0 
-0.101405 -0.0600544 0.036783 -5.96544e-012 -1.2452e-008 -5.0841e-006 0 -0 0 0 -0 0 0 -0 0 -0.710182 0.291049 -9.06432e-006 -4.08065 -24.8728 -29.063 -20.4891 -46.2262 -29.6565 18.7766 50.5609 1.61373 -28.2812 -65.1159 107.973 -6.09177 -7.50454 6.25808 -50.2555 -20.1037 -11.5815 6.52549 -38.8417 -58.6608 -26.5331 8.44653 -17.9537 -91.5567 -1.90677 27.2106 2.19058 -121.085 2.06379 4.08065 24.8728 -29.063 20.4891 46.2262 29.6565 18.7766 -50.5609 -1.61373 28.2812 65.1159 107.973 6.09177 7.50454 -6.25808 50.2555 20.1037 11.5815 -6.52549 38.8417 58.6608 26.5331 -8.44653 17.9537 91.5567 1.90677 -27.2106 -2.19058 121.085 -2.06379 -0.150976 -0.654624 0.00172927 0.0239015 0.127065 0.654631 0 -0.139628 -0.654624 0.00159928 0 0.139619 0.654631 0 
-0.10135 -0.0600565 0.0361409 -5.99542e-012 -1.25146e-008 -5.10965e-006 0 -0 0 0 -0 0 0 -0 0 -0.711775 0.290756 -2.2869e-010 -4.10083 -24.9977 -28.4186 -21.0414 -43.7773 -31.3429 18.8688 50.815 1.6213 -27.9436 -65.2833 108.317 -5.9465 -7.44175 6.29417 -50.3571 -20.0037 -11.5643 6.55825 -38.876 -58.7545 -26.576 8.48127 -17.8832 -91.8158 -1.8259 27.3153 2.32054 -121.523 2.17466 4.10083 24.9977 -28.4186 21.0414 43.7773 31.3429 18.8688 -50.815 -1.6213 27.9436 65.2833 108.317 5.9465 7.44175 -6.29417 50.3571 20.0037 11.5643 -6.55825 38.876 58.7545 26.576 -8.48127 17.8832 91.8158 1.8259 -27.3153 -2.32054 121.523 -2.17466 -0.191471 -0.658113 0.00219925 0.0240216 0.167436 0.658121 0 -0.180067 -0.658113 0.00206827 2.81041e-006 0.180052 0.658121 0 
-0.10135 -0.0600565 0.0361396 -8.77991e-013 -1.6085e-008 -5.10964e-006 0 -0 0 0 -0 0 0 -0 0 -0.711755 0.290738 -2.27635e-015 -4.10083 -24.9977 -28.4129 -21.0443 -43.7602 -31.3545 18.8688 50.815 1.6213 -27.9436 -65.2833 108.317 -5.9465 -7.44175 6.29417 -50.3571 -20.0037 -11.5643 6.55825 -38.876 -58.7545 -26.576 8.48127 -17.8832 -91.8158 -1.8259 27.3153 2.32054 -121.523 2.17466 4.10083 24.9977 -28.4129 21.0443 43.7602 31.3545 18.8688 -50.815 -1.6213 27.9436 65.2833 108.317 5.9465 7.44175 -6.29417 50.3571 20.0037 11.5643 -6.55825 38.876 58.7545 26.576 -8.48127 17.8832 91.8158 1.8259 -27.3153 -2.32054 121.523 -2.17466 -0.191555 -0.658116 0.00220023 0.0240216 0.16752 0.658125 0 -0.180149 -0.658116 0.00206922 1.71879e-006 0.180135 0.658125 0 
-0.10135 -0.0600565 0.0361396 7.30165e-013 -1.60655e-008 -5.10964e-006 0 -0 0 0 -0 0 0 -0 0 -0.711754 0.290738 3.88256e-019 -4.10083 -24.9977 -28.4129 -21.0443 -43.7602 -31.3545 18.8688 50.815 1.6213 -27.9436 -65.2833 108.317 -5.9465 -7.44175 6.29417 -50.3571 -20.0037 -11.5643 6.55825 -38.876 -58.7545 -26.576 8.48127 -17.8832 -91.8158 -1.8259 27.3153 2.32054 -121.523 2.17466 4.10083 24.9977 -28.4129 21.0443 43.7602 31.3545 18.8688 -50.815 -1.6213 27.9436 65.2833 108.317 5.9465 7.44175 -6.29417 50.3571 20.0037 11.5643 -6.55825 38.876 58.7545 26.576 -8.48127 17.8832 91.8158 1.8259 -27.3153 -2.32054 121.523 -2.17466 -0.191552 -0.658116 0.0022002 0.0240216 0.167518 0.658125 0 -0.180147 -0.658116 0.0020692 1.70755e-006 0.180133 0.658125 0 
-0.10135 -0.0600565 0.0361396 -2.9032e-012 -1.60654e-008 -5.10964e-006 0 -0 0 0 -0 0 0 -0 0 -0.711755 0.290738 3.88256e-019 -4.10083 -24.9977 -28.4129 -21.0443 -43.7602 -31.3545 18.8688 50.815 1.6213 -27.9436 -65.2833 108.317 -5.9465 -7.44175 6.29417 -50.3571 -20.0037 -11.5643 6.55825 -38.876 -58.7545 -26.576 8.48127 -17.8832 -91.8158 -1.8259 27.3153 2.32054 -121.523 2.17466 4.10083 24.9977 -28.4129 21.0443 43.7602 31.3545 18.8688 -50.815 -1.6213 27.9436 65.2833 108.317 5.9465 7.44175 -6.29417 50.3571 20.0037 11.5643 -6.55825 38.876 58.7545 26.576 -8.48127 17.8832 91.8158 1.8259 -27.3153 -2.32054 121.523 -2.17466 -0.191551 -0.658116 0.00220018 0.0240216 0.167516 0.658125 0 -0.180145 -0.658116 0.00206918 2.56132e-008 0.180133 0.658125 0 
-0.10135 -0.0600565 0.0361396 -3.50066e-012 -1.60654e-008 -5.10964e-006 0 -0 0 0 -0 0 0 -0 0 -0.711755 0.290738 -0 -4.10083 -24.9977 -28.4129 -21.0443 -43.7602 -31.3545 18.8688 50.815 1.6213 -27.9436 -65.2833 108.317 -5.9465 -7.44175 6.29417 -50.3571 -20.0037 -11.5643 6.55825 -38.876 -58.7545 -26.576 8.48127 -17.8832 -91.8158 -1.8259 27.3153 2.32054 -121.523 2.17466 4.10083 24.9977 -28.4129 21.0443 43.7602 31.3545 18.8688 -50.815 -1.6213 27.9436 65.2833 108.317 5.9465 7.44175 -6.29417 50.3571 20.0037 11.5643 -6.55825 38.876 58.7545 26.576 -8.48127 17.8832 91.8158 1.8259 -27.3153 -2.32054 121.523 -2.17466 -0.19155 -0.658116 0.00220018 0.0240216 0.167516 0.658125 0 -0.180145 -0.658116 0.00206917 2.37258e-006 0.180131 0.658125 0 
-0.10135 -0.0600565 0.0361396 1.66823e-012 -1.60654e-008 -5.10964e-006 0 -0 0 0 -0 0 0 -0 0 -0.711755 0.290738 -0 -4.10083 -24.9977 -28.4129 -21.0443 -43.7602 -31.3545 18.8688 50.815 1.6213 -27.9436 -65.2833 108.317 -5.9465 -7.44175 6.29417 -50.3571 -20.0037 -11.5643 6.55825 -38.876 -58.7545 -26.576 8.48127 -17.8832 -91.8158 -1.8259 27.3153 2.32054 -121.523 2.17466 4.10083 24.9977 -28.4129 21.0443 43.7602 31.3545 18.8688 -50.815 -1.6213 27.9436 65.2833 108.317 5.9465 7.44175 -6.29417 50.3571 20.0037 11.5643 -6.55825 38.876 58.7545 26.576 -8.48127 17.8832 91.8158 1.8259 -27.3153 -2.32054 121.523 -2.17466 -0.191551 -0.658116 0.00220018 0.0240216 0.167516 0.658125 0 -0.180145 -0.658116 0.00206918 2.41484e-006 0.180131 0.658125 0 
